<svg width="24" height="24" viewBox="0 0 24 24" fill="none" xmlns="http://www.w3.org/2000/svg">
<path d="M11.6854 20.8183C11.6854 20.8084 11.5992 20.5413 11.4929 20.225C11.0457 18.8854 10.9034 18.4572 10.5725 17.4692C10.382 16.8976 10.0953 16.0431 9.93888 15.5736C9.78247 15.1042 9.62607 14.6524 9.58998 14.5699C9.44761 14.2379 9.20499 13.957 8.96036 13.8411C8.84406 13.7861 8.80796 13.7783 8.65758 13.7763C8.49917 13.7763 8.4731 13.7822 8.33675 13.849C8.10014 13.9629 7.91366 14.1653 7.75124 14.4835C7.71114 14.5601 7.51664 15.112 7.31411 15.7111C6.81683 17.2001 6.68048 17.6067 6.49601 18.1567C6.40778 18.4159 6.34361 18.6379 6.34963 18.6517C6.36567 18.6831 6.64038 18.9051 6.883 19.0838C8.15428 20.0227 9.66216 20.612 11.2643 20.7986C11.6433 20.8438 11.6854 20.8458 11.6854 20.8183Z" fill="#D71616"/>
<path d="M16.1469 20.0286C18.0698 19.1565 19.692 17.5497 20.5482 15.6719C20.7568 15.2161 21.0234 14.4933 20.9994 14.452C20.9914 14.4422 20.9713 14.4344 20.9513 14.4344C20.9332 14.4344 20.3397 14.3145 19.6339 14.1692C18.93 14.0258 17.5545 13.741 16.578 13.5406C14.7352 13.1615 14.1357 13.0378 13.6605 12.9395C13.5061 12.9081 13.3396 12.8728 13.2895 12.8629C13.2394 12.8531 13.0509 12.8138 12.8684 12.7765C11.4127 12.472 11.4768 12.4819 11.164 12.4819C10.9154 12.4799 10.8512 12.4858 10.7229 12.5251C10.5304 12.584 10.3239 12.7176 10.2417 12.8394C10.0231 13.1635 10.1093 13.6369 10.4763 14.1142C10.5184 14.1692 10.7871 14.4697 11.0738 14.7801C11.3585 15.0924 11.7014 15.4656 11.8358 15.611C11.9681 15.7563 12.1626 15.9685 12.2669 16.0824C12.3711 16.1963 12.6819 16.5381 12.9587 16.8386C13.2334 17.1411 13.6625 17.6106 13.9111 17.8797C14.1598 18.1508 14.637 18.6733 14.9739 19.0406C15.8762 20.0286 15.9423 20.1013 15.9544 20.1052C15.9604 20.1092 16.0466 20.0738 16.1469 20.0286Z" fill="#D71616"/>
<path d="M4.80966 16.324C4.93599 16.1865 5.12848 15.9763 5.23877 15.8585C5.88443 15.1611 6.75668 14.1967 6.85092 14.0749C7.07349 13.7861 7.18378 13.4817 7.16974 13.1969C7.16373 13.0535 7.1517 13.0122 7.09355 12.9062C6.97725 12.6901 6.77472 12.5624 6.44989 12.4976C6.17317 12.4426 5.94258 12.4642 5.20869 12.6174C4.86179 12.6881 4.45074 12.7726 4.29634 12.804C3.53237 12.9612 3.33586 13.0024 3.32985 13.0083C3.32584 13.0122 3.34188 13.1379 3.36394 13.2872C3.50229 14.179 3.76497 15.0276 4.14395 15.7995C4.29233 16.1001 4.53896 16.5479 4.56704 16.5656C4.57506 16.5695 4.68534 16.4615 4.80966 16.324Z" fill="#D71616"/>
<path d="M11.4047 11.5135C11.4708 11.5056 13.2534 11.1422 15.2445 10.7297C16.3073 10.5097 17.3119 10.3035 19.0143 9.95385C19.698 9.81438 20.4219 9.6651 20.6244 9.62385C20.8269 9.58063 20.9954 9.54331 21.0014 9.53742C21.0134 9.52563 20.8329 8.99332 20.7327 8.74582C20.2996 7.67921 19.6459 6.6794 18.8438 5.86226C18.1019 5.10601 17.2878 4.52459 16.3113 4.04923L15.9544 3.87638L15.9022 3.93531C15.8481 3.9962 15.2004 4.70923 14.8736 5.06476C14.5087 5.45958 13.8349 6.19619 13.5582 6.50065C13.2273 6.86404 12.2548 7.92671 11.2342 9.04242C10.364 9.99313 10.2336 10.1699 10.1514 10.5137C10.0391 10.9753 10.2557 11.3387 10.7229 11.4683C10.8733 11.5115 11.2442 11.5351 11.4047 11.5135Z" fill="#D71616"/>
<path d="M6.42783 11.5076C6.90306 11.4231 7.17175 11.1521 7.17375 10.7553C7.17375 10.5647 7.14969 10.4606 7.05344 10.2583C6.91308 9.96171 6.98326 10.0422 5.34103 8.24886C4.63722 7.48082 4.57706 7.41993 4.55099 7.45333C4.48683 7.53975 4.35449 7.77547 4.19407 8.09368C3.779 8.9226 3.49227 9.83206 3.36394 10.7219C3.34188 10.8672 3.32784 10.9871 3.33185 10.991C3.33386 10.9949 3.51232 11.0322 3.72687 11.0754C3.94142 11.1167 4.31037 11.1933 4.54698 11.2424C5.78818 11.5017 5.8343 11.5096 6.08094 11.5174C6.21328 11.5213 6.36968 11.5174 6.42783 11.5076Z" fill="#D71616"/>
<path d="M8.81799 10.2033C9.0927 10.1306 9.34936 9.89492 9.53383 9.53938C9.58597 9.43724 9.72433 9.05814 9.90078 8.53171C10.0572 8.06814 10.2778 7.40815 10.392 7.06833C10.5063 6.72851 10.759 5.97226 10.9535 5.38887C11.148 4.80548 11.3926 4.07673 11.4969 3.76834C11.6012 3.45995 11.6854 3.19674 11.6854 3.18102C11.6854 3.1496 11.5149 3.15942 11.0658 3.22031C9.40751 3.4462 7.83746 4.12388 6.53611 5.17869C6.42382 5.27101 6.33359 5.35548 6.3376 5.36923C6.34361 5.38101 6.56619 6.04494 6.83087 6.84243C7.75926 9.62188 7.71916 9.51385 7.90564 9.7692C8.07608 10.003 8.27058 10.1503 8.4711 10.2013C8.60745 10.2367 8.69567 10.2367 8.81799 10.2033Z" fill="#D71616"/>
</svg>
